<svg version="1" xmlns="http://www.w3.org/2000/svg" width="300" height="290" viewBox="0 0 300 290" preserveAspectRatio="xMidYMid meet"><metadata>
</metadata><g transform="translate(0.000000,290.000000) scale(0.100000,-0.100000)" fill="#d3044a" stroke="none"><path d="M1305 2888c-125-18-283-60-365-95-225-98-387-207-530-359-357-380-492-904-361-1399 75-282 249-561 458-735 43-35 80-67 83-71 12-14 151-99 215-132 199-100 264-117 301-76 16 18 19 40 22 166 2 80 0 149-5 154-4 4-41 3-81-3-127-20-264 15-352 88-19 16-51 66-77 120-55 112-87 152-159 200-75 50-73 87 5 87 58 0 135-40 191-98 27-30 50-58 50-63 0-6 25-35 55-65 82-82 178-106 303-76 56 14 82 34 82 64 0 26 58 145 71 145 5 0 9 4 9 9 0 5-26 12-57 16-53 6-91 15-193 46-140 43-289 167-348 289-53 110-72 205-72 365 0 172 19 243 95 355 50 73 51 77 39 110-19 54-17 204 4 280l19 65 57 3c44 2 75-3 129-24 68-26 206-100 217-116 3-4 51 2 105 14 144 32 426 32 570 0 54-12 102-18 105-14 11 16 149 90 217 116 54 21 85 26 129 24l57-3 19-65c21-76 23-226 4-280-12-33-11-37 39-110 30-45 60-105 74-149 21-67 23-86 18-230-5-171-17-234-69-339-36-75-122-171-192-216-91-58-232-105-358-121-27-4-48-10-48-16 0-5 4-9 9-9 17 0 69-119 76-173 4-28 7-158 8-288 2-218 4-239 21-258 37-41 102-24 301 76 65 33 204 118 215 133 3 3 39 34 81 68 163 133 332 375 413 592 231 610 30 1308-488 1699-118 89-204 138-356 204-200 86-534 129-755 95zM532 778c3-7 13-15 22-16 12-3 17 1 14 10-3 7-13 15-22 16-12 3-17-1-14-10zM590 726c0-7 7-19 15-26 12-10 16-9 21 3 3 9 3 21-1 27-9 15-35 12-35-4zM654 656c-9-24 21-55 38-38 10 10 8 17-9 34-21 20-23 20-29 4zM720 561c0-22 25-45 40-36 16 10 12 42-6 49-26 10-34 7-34-13zM831 510c-21-12-5-42 21-38 12 2 23 8 25 15 6 16-30 34-46 23zM1073 503c-23-9-14-33 11-33 29 0 44 19 25 31-15 10-18 10-36 2zM951 491c-21-14-5-43 21-39 15 2 23 10 23 23 0 22-22 30-44 16z"/></g></svg>
