<svg version="1" xmlns="http://www.w3.org/2000/svg" width="224" height="315" viewBox="0 0 224 315" preserveAspectRatio="xMidYMid meet"><g transform="translate(0.000000,315.000000) scale(0.100000,-0.100000)" fill="#d3044a" stroke="none"><path d="M985 3138c-16-6-64-22-105-35-200-66-352-196-451-386-72-139-81-183-86-429l-5-218-101 0c-119 0-166-18-209-79l-28-39 0-521 0-521 538 0 539 0 38 55c21 31 62 78 92 105 273 249 678 246 944-7 42-40 79-73 83-73 3 0 6 243 6 540l0 540-160 0-160 0 0 199c0 183-2 206-25 287-32 113-71 193-134 276-96 126-236 226-386 273-44 14-94 30-111 35-39 13-240 11-279-2zm250-352c176-47 306-189 334-366 6-36 11-129 11-207l0-143-445 0-445 0 0 179c0 151 3 189 20 244 22 72 87 167 141 208 113 86 260 118 384 85zM1625 1119c-44-4-105-16-136-28-126-48-246-152-305-264l-29-56-492-3-493-3-85-85c-113-112-113-118-2-228 72-72 87-82 118-82 28 0 43 8 74 40 53 54 87 54 140 0 53-55 90-55 149 0 24 22 53 40 66 40 13 0 42-18 66-40 33-30 52-40 77-40 25 0 42 9 72 40 53 54 87 54 140 0 38-38 42-40 105-41l65 0 29-61c82-173 301-308 501-308 41 0 83 4 93 9 9 5 37 14 62 21 127 33 270 154 333 279 20 40 39 88 43 107 3 19 10 37 15 40 11 7 12 207 1 220-5 5-14 29-21 54-57 198-244 356-457 388-27 4-85 4-129 1zm376-462c18-12 39-38 47-58 27-71-31-145-111-143-88 3-137 115-77 179 46 50 90 57 141 22z"/></g></svg>