<svg version="1" xmlns="http://www.w3.org/2000/svg" width="50" height="50" viewBox="0 0 255 275" preserveAspectRatio="xMidYMid meet"><metadata>
Created by potrace 1.13, written by Peter Selinger 2001-2015
</metadata><g transform="translate(0.000000,275.000000) scale(0.100000,-0.100000)" fill="#000000" stroke="none"><path d="M515 2734c-226-47-421-229-492-459-16-54-18-100-18-450l0-390 27-81c78-229 284-404 516-438l42-6 0 40c0 35-3 40-27 45-78 16-167 49-219 83-126 82-219 216-249 360-18 83-21 675-4 768 6 32 28 96 50 142 66 142 181 241 349 298 52 18 95 19 780 19 788 0 766 1 889-58 79-38 202-156 244-234 59-111 67-172 67-538 0-197-4-355-11-390-31-167-148-320-308-400-88-44-164-55-396-55l-210 0-146-147c-80-82-258-265-397-409l-251-261 27-26c16-15 30-27 33-27 2 0 175 178 383 395l379 395 207 0c173 0 219 3 284 20 234 60 423 255 471 485 22 103 21 724 0 827-39 183-172 355-339 436-144 70-94 66-891 69-599 1-732-1-790-13zM410 2350l0-40 870 0 870 0 0 40 0 40-870 0-870 0 0-40zM410 1840l0-40 870 0 870 0 0 40 0 40-870 0-870 0 0-40zM410 1380l0-40 870 0 870 0 0 40 0 40-870 0-870 0 0-40z"/></g></svg>
