<svg xmlns="http://www.w3.org/2000/svg" version="1" viewBox="0 0 1513 324"><path d="M14316 3135c-4-12-29-15-131-15l-125 0 0-135c0-101 3-135 13-136 6-1 41-1 77 0 36 2 78-2 93-8 59-23 74-138 25-188-48-48-134-39-166 17-11 20-25 30-40 30-21 0-23-4-20-47l3-48 60-13c159-33 275 34 275 159 0 56-30 106-80 132-28 15-50 17-112 14l-78-5 0 79 0 78 123 3 122 3 3 48c3 41 1 47-16 47-11 0-22-7-26-15zM13478 3067c-54-29-98-54-98-57 0-3 4-11 9-18 7-11 19-8 60 12 28 15 56 24 61 21 6-4 10-81 10-184 0-201 1-197-74-207-36-5-46-11-46-25 0-18 11-19 160-19 150 0 160 1 160 19 0 15-10 20-50 25-34 5-53 13-60 26-6 11-10 109-10 239 0 170-3 221-12 221-7-1-57-24-110-53zM6275 2913c-245-280-388-703-414-1221-16-306 11-589 79-857 79-310 192-538 353-711 63-67 64-68 76-45 11 19 9 27-13 54-167 206-264 433-330 774-43 225-51 321-51 638 1 257 4 321 23 450 60 409 184 734 350 917 28 31 34 43 26 56-6 9-15 17-21 19-6 2-41-31-78-74zM14552 2978c-18-18-15-32 13-58 14-13 47-55 74-94 161-234 264-581 302-1016 15-169 6-562-16-719-54-388-165-702-319-904-60-79-65-90-53-107 13-18 16-17 64 33 217 222 370 604 428 1067 18 146 21 518 5 660-42 377-142 694-295 930-43 68-171 220-184 220-4 0-12-5-19-12zM9795 2775c-66-41-124-76-129-78-5-1-4-13 3-24 11-22 11-22 81 15 104 55 102 61 98-265-3-293-2-289-74-299-75-10-84-14-84-34 0-19 7-20 211-20l210 0-3 23c-2 18-10 22-43 25-58 4-82 10-99 28-14 13-16 60-16 360 0 321-1 344-17 343-10 0-72-34-138-74zM12365 2840c-22-4-65-17-95-27l-55-19-3-57-3-57 35 0c26 0 36 5 41 20 12 37 56 80 95 90 87 24 160-37 160-134 0-86-27-130-194-322-71-83-156-216-156-246 0-17 17-18 229-18 262 0 241-9 241 101 0 65-1 69-23 69-16 0-26-9-34-30-6-17-23-34-38-40-33-12-255-13-255-1 0 16 86 123 189 236 120 130 151 185 151 265 0 71-25 118-78 148-46 26-143 36-207 22zM10840 2600l0-160-150 0-150 0 0-40 0-40 150 0 150 0 0-160 0-160 40 0 40 0 0 160 0 160 155 0 155 0 0 40 0 40-155 0-155 0 0 160 0 160-40 0-40 0 0-160zM8881 2620c-66-65-116-141-178-265-119-236-163-461-163-822 0-306 36-518 121-723 63-151 156-296 241-378l34-32 19 20c18 20 18 21-17 58-139 146-243 428-278 752-17 153-14 501 4 650 39 310 137 571 272 719 30 34 34 44 24 56-18 22-24 20-79-35zM12811 2656c-10-12-2-27 39-78 59-72 147-245 184-361 30-91 61-252 76-382 15-136 12-481-5-630-35-300-135-570-265-718-35-39-40-50-30-62 20-24 36-18 85 38 146 162 259 411 307 678 20 109 23 157 23 399-1 220-4 295-19 375-52 293-165 544-314 698-31 31-59 57-63 57-4 0-12-6-18-14zM9125 2601c-22-10-53-32-69-49-24-26-27-34-16-47 11-13 16-11 47 15 18 17 45 30 58 30 23 0 25-4 25-45 0-25-20-132-45-237-25-106-45-193-45-195 0-2 23-3 50-3 28 0 50 2 50 5 0 2 14 68 31 147 35 162 52 201 116 269 54 58 96 66 115 24 17-37 65-35 74 3 3 15 10 41 14 59 10 39 6 43-39 43-69 0-111-20-174-81-34-32-61-59-62-59 0 0 1 20 3 44 3 38 0 49-22 70-30 31-57 32-111 7zM11685 2601c-22-10-53-32-69-49-24-26-27-34-16-47 11-13 16-11 47 15 38 34 82 40 85 13 3-39-5-85-43-253-22-96-42-183-45-192-5-16 2-18 45-18l49 0 22 98c39 177 51 216 75 257 27 46 93 112 115 115 35 5 50-2 56-25 5-19 13-25 35-25 24 0 30 5 38 38 21 80 19 87-18 90-66 7-122-18-183-79l-58-57 0 48c0 41-4 52-26 69-33 26-57 26-109 2zM1004 1638c-195-336-242-408-270-408-8 0-14-7-14-15 0-12 19-15 115-15 93 0 115 3 115 14 0 8-9 18-20 21-41 13-36 85 13 170l23 40 127 3 127 3 0-85c0-100-4-112-41-132-52-27-33-34 91-34 97 0 120 3 120 14 0 8-9 17-19 21-36 11-44 61-65 403l-21 337-41 3-42 3-198-343zm205-45l1-93-106 0c-58 0-104 4-102 8 2 5 46 85 98 178l95 169 7-85c3-47 6-127 7-177zM3202 1899c-118-72-131-82-122-100 14-25 17-24 70 11 49 33 94 39 104 14 3-9 6-130 6-270 0-255 0-255-24-279-16-16-40-25-80-30-46-6-56-11-56-26 0-18 11-19 210-19 199 0 210 1 210 19 0 15-11 20-61 25-104 12-99-9-99 391 0 270-3 345-12 345-7-1-73-37-146-81zM3877 1969c-140-22-216-119-193-243 8-40 46-90 88-116l28-16-46-33c-123-87-107-270 31-340 42-22 62-26 140-26 81 0 95 3 144 30 71 39 104 89 109 165 2 32-1 74-7 93-11 33-70 96-102 110-11 5-10 9 6 19 100 65 129 166 77 266-35 69-159 110-275 91zm113-57c74-37 103-140 62-222-45-91-194-92-246-1-26 46-26 143 1 180 24 33 79 61 118 61 17 0 46-8 65-18zm16-361c43-26 64-76 64-153 0-110-54-164-157-156-86 7-133 67-133 168 0 104 51 160 145 160 31 0 62-7 81-19zM4530 1970c-128-24-197-140-207-350-10-197 30-335 115-394 38-27 51-30 115-31 92 0 140 23 185 89 54 80 67 141 67 306 0 115-4 158-19 208-39 127-139 195-256 172zm75-52c31-14 58-57 76-123 22-79 19-385-4-452-42-121-159-138-207-30-38 86-53 316-29 452 22 129 86 189 164 153zM5070 1970c-68-12-112-51-129-116-39-145 100-259 235-193 171 82 82 342-106 309zm107-83c50-49 36-149-24-176-49-22-117-8-140 28-35 56-16 141 37 169 36 18 98 8 127-21zM6663 1902c-73-42-132-82-133-88 0-6 6-17 14-23 11-9 24-5 62 19 26 16 60 30 76 30 38 0 41-22 36-310-3-238-3-242-26-260-12-10-47-22-77-25-45-6-55-11-55-26 0-18 11-19 205-19 194 0 205 1 205 19 0 15-10 20-52 25-29 4-63 14-75 22l-23 14 0 350c0 273-3 350-12 350-7 0-72-35-145-78zM187 1956c-4-10-1-16 7-16 7 0 21-9 31-20 22-24 21-28-52-360-61-278-73-315-102-325-10-3-22-12-25-20-4-13 13-15 114-15 100 0 120 3 120 15 0 8-8 15-18 15-48 0-52 44-19 195l22 100 110 6c93 4 118 9 162 32 86 44 133 124 133 224 0 81-23 122-84 152-46 23-64 25-221 29-152 4-173 3-178-12zm332-60c90-47 51-242-60-298-23-12-57-18-106-18-40 0-73 2-73 5 0 15 70 317 76 326 9 15 125 4 163-15zM1870 1645l0-35 345 0 345 0 0 35 0 35-345 0-345 0 0-35zM7407 1563c-4-3-7-21-7-40l0-33 350 0 350 0 0 40 0 40-343 0c-189 0-347-3-350-7zM9010 1535l0-35 1875 0 1875 0 0 35 0 35-1875 0-1875 0 0-35zM1870 1410l0-40 345 0 345 0 0 40 0 40-345 0-345 0 0-40zM10300 1189c-19-6-54-17-77-26l-43-16 0-58c0-59 0-59 30-59 24 0 32 6 44 33 21 50 59 79 112 85 140 15 190-143 90-286-14-20-67-84-117-142-91-106-179-239-179-272 0-17 17-18 229-18l228 0 7 46c3 26 6 62 6 80 0 29-4 34-22 34-15-1-30-13-43-33l-20-32-138-3-138-3 30 44c16 24 69 87 118 141 183 202 211 251 200 349-12 99-80 147-207 146-41 0-91-5-110-10zM10825 951c-16-10-43-32-58-48-24-26-26-31-12-43 12-10 21-7 50 19 53 46 85 39 85-21 0-11-20-107-45-215-25-107-45-199-45-204 0-6 21-9 47-7l47 3 33 143c38 168 60 217 125 278 55 52 85 55 106 12 10-21 20-28 41-28 26 0 29 4 35 43 4 23 9 52 13 65 5 21 2 22-51 22-72 0-120-24-179-89l-45-51 1 49c2 65-20 91-77 91-23 0-54-8-71-19zM11297 709c-66-15-77-26-77-69 0-36 3-40 25-40 14 0 25 4 25 9 0 5 13 23 29 40 24 26 37 31 73 31 58 0 91-32 91-87 0-55-24-94-113-187-77-80-150-179-150-203 0-10 40-13 175-13l175 0 0 38c0 20 3 47 6 60 9 31-22 30-52-3-21-23-30-25-114-25-49 0-90 4-90 9 0 5 52 64 115 130 117 122 135 149 135 201 0 98-107 144-253 109z" transform="matrix(.1 0 0 -.1 0 324)"/></svg>
